<?xml version="1.0" encoding="UTF-8"?>
<svg xmlns="http://www.w3.org/2000/svg" xmlns:xlink="http://www.w3.org/1999/xlink" width="512px" height="512px" viewBox="0 0 512 512" version="1.1">
    
    <title>Pint</title>
    <desc>Created with Sketch.</desc>
    <defs>
        <polygon id="path-1" points="0 508.711978 389.578 508.711978 389.578 0.00140273973 0 0.00140273973"/>
    </defs>
    <g id="SVG" stroke="none" stroke-width="1" fill="none" fill-rule="evenodd">
        <g id="Pint">
            <g id="7" transform="translate(60.000000, 0.000000)">
                <path d="M261.8441,498.19143 L29.1851,498.19143 C18.8601,498.19143 10.5021,489.81006 10.5021,479.471868 L10.5021,120.440636 L280.5201,120.440636 L280.5201,479.471868 C280.5201,489.81006 272.1621,498.19143 261.8441,498.19143 Z" id="Fill-1" fill="#FDDA00"/>
                <path d="M10.5,479.47257 C10.5,489.810762 18.858,498.192132 29.183,498.192132 L261.842,498.192132 C272.16,498.192132 280.518,489.810762 280.518,479.47257 L280.518,464.11257 L10.5,464.11257 L10.5,479.47257 Z" id="Fill-3" fill="#FEFEFE"/>
                <mask id="mask-2" fill="white">
                    <use xlink:href="#path-1"/>
                </mask>
                <g id="Clip-6"/>
                <polygon id="Fill-5" fill="#FEFEFE" mask="url(#mask-2)" points="10.5 162.522827 280.518 162.522827 280.518 120.440636 10.5 120.440636"/>
                <path d="M238.5194,120.441337 L238.5194,479.47257 C238.5194,489.810762 230.1614,498.192132 219.8434,498.192132 L261.8434,498.192132 C272.1614,498.192132 280.5194,489.810762 280.5194,479.47257 L280.5194,120.441337 L238.5194,120.441337 Z" id="Fill-7" fill="#88441E" opacity="0.3" mask="url(#mask-2)"/>
                <path d="M21,130.961885 L21,479.47257 C21,483.989392 24.668,487.671584 29.183,487.671584 L261.842,487.671584 C266.35,487.671584 270.018,483.989392 270.018,479.47257 L270.018,130.961885 L21,130.961885 Z M261.842,508.712679 L29.183,508.712679 C13.09,508.712679 0,495.597063 0,479.47257 L0,120.441337 C0,114.626981 4.704,109.920789 10.5,109.920789 L280.518,109.920789 C286.314,109.920789 291.018,114.626981 291.018,120.441337 L291.018,479.47257 C291.018,495.597063 277.928,508.712679 261.842,508.712679 L261.842,508.712679 Z" id="Fill-8" fill="#2E2E30" mask="url(#mask-2)"/>
                <path d="M236.1408,74.4279671 C234.2438,74.4279671 232.4098,74.7015014 230.5898,74.989063 C230.5898,74.7996932 230.6178,74.617337 230.6178,74.4279671 C230.6178,53.0151452 213.2928,35.6632548 191.9288,35.6632548 C190.1508,35.6632548 188.4218,35.8245699 186.7068,36.0560219 C179.1258,20.927474 163.5578,10.5191452 145.5118,10.5191452 C127.4728,10.5191452 111.8908,20.927474 104.3238,36.0560219 C102.6088,35.8245699 100.8728,35.6632548 99.0948,35.6632548 C77.7308,35.6632548 60.4128,53.0151452 60.4128,74.4279671 C60.4128,74.617337 60.4268,74.7996932 60.4338,74.989063 C58.6138,74.7015014 56.7868,74.4279671 54.8758,74.4279671 C35.3458,74.4279671 19.5118,90.2929534 19.5118,109.868186 C19.5118,113.564405 20.1418,117.09931 21.1988,120.444844 L59.1808,120.444844 L59.1808,177.101501 C59.1808,188.07794 68.0568,196.97131 79.0118,196.97131 C89.9668,196.97131 98.8498,188.07794 98.8498,177.101501 L98.8498,120.444844 L269.7898,120.444844 C270.8398,117.092296 271.5118,113.571419 271.5118,109.868186 C271.5118,90.2929534 255.6778,74.4279671 236.1408,74.4279671" id="Fill-9" fill="#FEFEFE" mask="url(#mask-2)"/>
                <path d="M30.0097,109.920789 L59.1787,109.920789 C64.9747,109.920789 69.6787,114.626981 69.6787,120.441337 L69.6787,177.105008 C69.6787,182.253063 73.8647,186.454268 79.0097,186.454268 C84.1547,186.454268 88.3477,182.253063 88.3477,177.105008 L88.3477,120.441337 C88.3477,114.626981 93.0517,109.920789 98.8477,109.920789 L261.0097,109.920789 L261.0097,109.864679 C261.0097,96.1248438 249.8517,84.9450082 236.1387,84.9450082 C234.8087,84.9450082 233.5207,85.1764603 232.2467,85.3798575 C229.2367,85.8427616 226.1147,84.9941041 223.7767,82.9952 C221.4387,80.9962959 220.0877,78.0645699 220.0877,74.9925699 C220.0877,74.733063 220.1087,74.1930082 220.1297,73.9335014 C220.1157,58.8540493 207.4737,46.1802959 191.9267,46.1802959 C190.6177,46.1802959 189.3507,46.3135562 188.0907,46.4818849 C183.7087,47.0570082 179.3267,44.7845699 177.3177,40.7727342 C171.2277,28.6039671 159.0407,21.0432 145.5097,21.0432 C131.9787,21.0432 119.7987,28.5969534 113.7087,40.7727342 C111.6927,44.7775562 107.3247,47.0640219 102.9357,46.4818849 C101.6687,46.3135562 100.4017,46.1802959 99.0927,46.1802959 C83.5527,46.1802959 70.9107,58.8540493 70.9107,74.4244603 C71.0157,77.573611 69.7347,80.6947068 67.3827,82.7777753 C65.0307,84.8608438 61.8947,85.8848438 58.7867,85.3798575 C57.5057,85.1764603 56.2177,84.9450082 54.8807,84.9450082 C41.1677,84.9450082 30.0097,96.1248438 30.0097,109.864679 L30.0097,109.920789 Z M79.0097,207.495364 C62.2797,207.495364 48.6787,193.860734 48.6787,177.105008 L48.6787,130.961885 L21.1967,130.961885 C16.6257,130.961885 12.5797,127.99509 11.1937,123.625556 C9.7377,119.059638 9.0097,114.430597 9.0097,109.864679 C9.0097,85.8287342 27.5177,66.0501041 51.0027,64.0652274 C55.7277,42.0281863 75.2017,25.4057205 98.5257,25.1462137 C108.9627,9.47761096 126.3927,0.00210410959 145.5097,0.00210410959 C164.6267,0.00210410959 182.0567,9.47761096 192.4937,25.1462137 C215.8247,25.4127342 235.2987,42.0281863 240.0237,64.0722411 C263.5017,66.0501041 282.0097,85.8357479 282.0097,109.864679 C282.0097,114.374488 281.2817,118.870268 279.8047,123.597501 C278.4257,127.981063 274.3727,130.961885 269.7877,130.961885 L109.3477,130.961885 L109.3477,177.105008 C109.3477,193.860734 95.7397,207.495364 79.0097,207.495364 L79.0097,207.495364 Z" id="Fill-10" fill="#2E2E30" mask="url(#mask-2)"/>
                <path d="M280.5194,409.718532 L326.6844,409.718532 C355.6224,409.718532 379.0794,386.215627 379.0794,357.220997 L379.0794,200.380668 C379.0794,171.386038 355.6224,147.876121 326.6844,147.876121 L280.5194,147.876121 L280.5194,186.619792 L321.5044,186.619792 C332.6834,186.619792 341.7484,195.702532 341.7484,206.903408 L341.7484,350.698258 C341.7484,361.899134 332.6834,370.981874 321.5044,370.981874 L280.5194,370.981874 L280.5194,409.718532 Z" id="Fill-11" fill="#FEFEFE" mask="url(#mask-2)"/>
                <path d="M291.0194,399.197984 L326.6844,399.197984 C349.7914,399.197984 368.5794,380.366203 368.5794,357.220997 L368.5794,200.380668 C368.5794,177.228449 349.7914,158.396668 326.6844,158.396668 L291.0194,158.396668 L291.0194,176.099244 L321.5044,176.099244 C338.4584,176.099244 352.2484,189.91623 352.2484,206.903408 L352.2484,350.698258 C352.2484,367.685436 338.4584,381.502422 321.5044,381.502422 L291.0194,381.502422 L291.0194,399.197984 Z M326.6844,420.239079 L280.5194,420.239079 C274.7234,420.239079 270.0194,415.525874 270.0194,409.718532 L270.0194,370.981874 C270.0194,365.167518 274.7234,360.461326 280.5194,360.461326 L321.5044,360.461326 C326.8804,360.461326 331.2484,356.084778 331.2484,350.698258 L331.2484,206.903408 C331.2484,201.516888 326.8804,197.14034 321.5044,197.14034 L280.5194,197.14034 C274.7234,197.14034 270.0194,192.434148 270.0194,186.619792 L270.0194,147.876121 C270.0194,142.061764 274.7234,137.355573 280.5194,137.355573 L326.6844,137.355573 C361.3624,137.355573 389.5794,165.627792 389.5794,200.380668 L389.5794,357.220997 C389.5794,391.96686 361.3624,420.239079 326.6844,420.239079 L326.6844,420.239079 Z" id="Fill-12" fill="#2E2E30" mask="url(#mask-2)"/>
                <path d="M10.5,464.362959 L280.518,464.362959" id="Fill-13" fill="#FEFEFE" mask="url(#mask-2)"/>
                <path d="M280.5194,474.883507 L10.5014,474.883507 C4.7054,474.883507 0.0014,470.170301 0.0014,464.362959 C0.0014,458.555616 4.7054,453.842411 10.5014,453.842411 L280.5194,453.842411 C286.3154,453.842411 291.0194,458.555616 291.0194,464.362959 C291.0194,470.170301 286.3154,474.883507 280.5194,474.883507" id="Fill-14" fill="#2E2E30" mask="url(#mask-2)"/>
            </g>
        </g>
    </g>

	<metadata>
		<rdf:RDF xmlns:rdf="http://www.w3.org/1999/02/22-rdf-syntax-ns#" xmlns:rdfs="http://www.w3.org/2000/01/rdf-schema#" xmlns:dc="http://purl.org/dc/elements/1.1/">
			<rdf:Description about="https://iconscout.com/legal#licenses" dc:title="Pint" dc:description="Pint" dc:publisher="Iconscout" dc:date="2017-04-21" dc:format="image/svg+xml" dc:language="en">
				<dc:creator>
					<rdf:Bag>
						<rdf:li>AomAm .</rdf:li>
					</rdf:Bag>
				</dc:creator>
			</rdf:Description>
		</rdf:RDF>
    </metadata></svg>
